<svg width="34" height="34" viewBox="0 0 34 34" fill="none" xmlns="http://www.w3.org/2000/svg">
<path d="M17 2V32M17 2H28.6667C29.5507 2 30.3986 2.35119 31.0237 2.97631C31.6488 3.60143 32 4.44928 32 5.33333V28.6667C32 29.5507 31.6488 30.3986 31.0237 31.0237C30.3986 31.6488 29.5507 32 28.6667 32H17V2ZM17 2H5.33333C4.44928 2 3.60143 2.35119 2.97631 2.97631C2.35119 3.60143 2 4.44928 2 5.33333V28.6667C2 29.5507 2.35119 30.3986 2.97631 31.0237C3.60143 31.6488 4.44928 32 5.33333 32H17V2Z" stroke="black" stroke-width="2.2" stroke-linecap="round" stroke-linejoin="round"/>
</svg>
