<svg width="28" height="27" viewBox="0 0 28 27" fill="none" xmlns="http://www.w3.org/2000/svg">
<path d="M6.65597 0.666504C6.13297 0.666504 5.61697 0.854504 5.18697 1.1975L5.12497 1.2285L5.09397 1.2605L1.96897 4.4795L1.99997 4.5095C1.54145 4.92586 1.21657 5.46874 1.06635 6.0696C0.916137 6.67046 0.947324 7.30236 1.15597 7.8855C1.15997 7.8935 1.15197 7.9085 1.15597 7.9165C2.00397 10.3425 4.17197 15.0265 8.40597 19.2605C12.656 23.5105 17.402 25.5925 19.75 26.5105H19.781C20.3694 26.705 20.9982 26.7439 21.6061 26.6233C22.214 26.5027 22.7803 26.2269 23.25 25.8225L26.406 22.6665C27.234 21.8385 27.234 20.4005 26.406 19.5725L22.344 15.5105L22.312 15.4475C21.484 14.6195 20.016 14.6195 19.187 15.4475L17.187 17.4475C15.686 16.7264 14.3054 15.7779 13.094 14.6355C11.457 13.0725 10.621 11.2755 10.313 10.5725L12.313 8.5725C13.153 7.7325 13.168 6.3345 12.281 5.5105L12.312 5.4785L12.219 5.3855L8.21897 1.2605L8.18797 1.2295L8.12497 1.1975C7.70994 0.858607 7.19178 0.671307 6.65597 0.666504ZM6.65597 2.6665C6.73772 2.67125 6.81522 2.70452 6.87497 2.7605L10.875 6.8535L10.969 6.9475C10.961 6.9395 11.027 7.0455 10.906 7.1665L8.40597 9.6665L7.93698 10.1045L8.15697 10.7285C8.15697 10.7285 9.30498 13.8035 11.719 16.1045L11.938 16.2915C14.261 18.4125 17 19.5725 17 19.5725L17.625 19.8545L20.594 16.8845C20.766 16.7135 20.734 16.7135 20.906 16.8845L25 20.9805C25.172 21.1515 25.172 21.0895 25 21.2605L21.937 24.3235C21.477 24.7185 20.988 24.8005 20.407 24.6055C18.141 23.7145 13.738 21.7805 9.81198 17.8555C5.85498 13.8975 3.78897 9.4095 3.03197 7.2305C2.87897 6.8235 2.98797 6.2225 3.34397 5.9175L3.40597 5.8545L6.43797 2.7615C6.49707 2.70558 6.5738 2.67199 6.65497 2.6665H6.65597Z" fill="#684FFF"/>
</svg>
