<svg width="96" height="76" viewBox="0 0 96 76" fill="none" xmlns="http://www.w3.org/2000/svg">
<path d="M18.1332 36.7245C7.43465 36.7245 0.197632 29.269 0.197632 18.2223C0.197632 8.28161 8.49972 0 19.7444 0C32.061 0 41.1619 9.94066 41.1619 25.1248C41.1619 59.6371 15.9962 73.4421 0.197632 75.1012V59.9171C10.9098 57.9849 22.9533 47.2181 23.4926 35.3385C22.9533 35.6116 20.8163 36.7245 18.1332 36.7245Z" fill="#DFE3EB"/>
<path d="M72.7523 36.7245C62.047 36.7245 54.8168 29.269 54.8168 18.2223C54.8168 8.28161 63.1189 0 74.3636 0C86.6801 0 95.781 9.94066 95.781 25.1248C95.781 59.6371 70.6153 73.4421 54.8168 75.1012V59.9171C65.5289 57.9849 77.5724 47.2181 78.1118 35.3385C77.5724 35.6116 75.4355 36.7245 72.7523 36.7245Z" fill="#DFE3EB"/>
</svg>
